<mxfile host="app.diagrams.net" modified="2023-06-26T13:21:14.535Z" agent="Mozilla/5.0 (Windows NT 10.0; Win64; x64) AppleWebKit/537.36 (KHTML, like Gecko) Chrome/114.0.0.0 Safari/537.36 Edg/114.0.1823.58" etag="NvEHz3PM10rt2goibSC8" version="21.5.0" type="device">
  <diagram id="C5RBs43oDa-KdzZeNtuy" name="Project (Server-side rendering)">
    <mxGraphModel dx="1768" dy="1622" grid="1" gridSize="10" guides="1" tooltips="1" connect="1" arrows="1" fold="1" page="1" pageScale="1" pageWidth="827" pageHeight="1169" math="0" shadow="0">
      <root>
        <mxCell id="WIyWlLk6GJQsqaUBKTNV-0" />
        <mxCell id="WIyWlLk6GJQsqaUBKTNV-1" parent="WIyWlLk6GJQsqaUBKTNV-0" />
        <mxCell id="8VdCpqw6Dqc6OQHHu6PZ-32" value="" style="verticalLabelPosition=bottom;verticalAlign=top;html=1;shape=mxgraph.basic.patternFillRect;fillStyle=grid;step=5;fillStrokeWidth=0.1;fillStrokeColor=#ff0000;movable=0;resizable=0;rotatable=0;deletable=0;editable=0;locked=1;connectable=0;" parent="WIyWlLk6GJQsqaUBKTNV-1" vertex="1">
          <mxGeometry x="-490" y="160" width="1290" height="190" as="geometry" />
        </mxCell>
        <mxCell id="8VdCpqw6Dqc6OQHHu6PZ-38" value="Các nút hiển thị ở mọi trang." style="shape=document;whiteSpace=wrap;html=1;boundedLbl=1;rotation=0;direction=east;" parent="WIyWlLk6GJQsqaUBKTNV-1" vertex="1">
          <mxGeometry x="-460" y="160" width="120" height="80" as="geometry" />
        </mxCell>
        <mxCell id="6S7R1LXf0X3z3ujbFeZb-9" value="Click đăng nhập" style="shape=parallelogram;perimeter=parallelogramPerimeter;whiteSpace=wrap;html=1;fixedSize=1;" parent="WIyWlLk6GJQsqaUBKTNV-1" vertex="1">
          <mxGeometry x="-26.25" y="300" width="122.5" height="30" as="geometry" />
        </mxCell>
        <mxCell id="O2-hMlVbb9kDlJ42-0CS-7" style="edgeStyle=orthogonalEdgeStyle;rounded=0;orthogonalLoop=1;jettySize=auto;html=1;exitX=0.5;exitY=1;exitDx=0;exitDy=0;" edge="1" parent="WIyWlLk6GJQsqaUBKTNV-1" source="6S7R1LXf0X3z3ujbFeZb-9" target="6S7R1LXf0X3z3ujbFeZb-9">
          <mxGeometry relative="1" as="geometry" />
        </mxCell>
        <mxCell id="WIyWlLk6GJQsqaUBKTNV-2" value="" style="rounded=0;html=1;jettySize=auto;orthogonalLoop=1;fontSize=11;endArrow=block;endFill=0;endSize=8;strokeWidth=1;shadow=0;labelBackgroundColor=none;edgeStyle=orthogonalEdgeStyle;" parent="WIyWlLk6GJQsqaUBKTNV-1" source="WIyWlLk6GJQsqaUBKTNV-3" target="WIyWlLk6GJQsqaUBKTNV-6" edge="1">
          <mxGeometry relative="1" as="geometry" />
        </mxCell>
        <mxCell id="WIyWlLk6GJQsqaUBKTNV-3" value="URL: buymee.com" style="rounded=1;whiteSpace=wrap;html=1;fontSize=12;glass=0;strokeWidth=1;shadow=0;" parent="WIyWlLk6GJQsqaUBKTNV-1" vertex="1">
          <mxGeometry x="-40" y="-90" width="120" height="40" as="geometry" />
        </mxCell>
        <mxCell id="WIyWlLk6GJQsqaUBKTNV-4" value="Yes" style="rounded=0;html=1;jettySize=auto;orthogonalLoop=1;fontSize=11;endArrow=block;endFill=0;endSize=8;strokeWidth=1;shadow=0;labelBackgroundColor=none;edgeStyle=orthogonalEdgeStyle;entryX=0.5;entryY=0;entryDx=0;entryDy=0;" parent="WIyWlLk6GJQsqaUBKTNV-1" source="WIyWlLk6GJQsqaUBKTNV-6" edge="1" target="O2-hMlVbb9kDlJ42-0CS-1">
          <mxGeometry x="-1" y="20" relative="1" as="geometry">
            <mxPoint as="offset" />
            <mxPoint x="340" y="160" as="sourcePoint" />
            <mxPoint x="320" y="50" as="targetPoint" />
          </mxGeometry>
        </mxCell>
        <mxCell id="WIyWlLk6GJQsqaUBKTNV-5" value="No" style="edgeStyle=orthogonalEdgeStyle;rounded=0;html=1;jettySize=auto;orthogonalLoop=1;fontSize=11;endArrow=block;endFill=0;endSize=8;strokeWidth=1;shadow=0;labelBackgroundColor=none;entryX=0;entryY=0.5;entryDx=0;entryDy=0;" parent="WIyWlLk6GJQsqaUBKTNV-1" source="WIyWlLk6GJQsqaUBKTNV-6" target="6S7R1LXf0X3z3ujbFeZb-4" edge="1">
          <mxGeometry x="-0.7778" y="10" relative="1" as="geometry">
            <mxPoint as="offset" />
            <mxPoint x="450" y="110" as="targetPoint" />
          </mxGeometry>
        </mxCell>
        <mxCell id="WIyWlLk6GJQsqaUBKTNV-6" value="Kết nối được với server?" style="rhombus;whiteSpace=wrap;html=1;shadow=0;fontFamily=Helvetica;fontSize=12;align=center;strokeWidth=1;spacing=6;spacingTop=-4;" parent="WIyWlLk6GJQsqaUBKTNV-1" vertex="1">
          <mxGeometry x="195" y="-110" width="150" height="80" as="geometry" />
        </mxCell>
        <mxCell id="8VdCpqw6Dqc6OQHHu6PZ-26" style="edgeStyle=orthogonalEdgeStyle;rounded=0;orthogonalLoop=1;jettySize=auto;html=1;exitX=0;exitY=0.5;exitDx=0;exitDy=0;entryX=1;entryY=0.5;entryDx=0;entryDy=0;" parent="WIyWlLk6GJQsqaUBKTNV-1" source="6S7R1LXf0X3z3ujbFeZb-8" target="8VdCpqw6Dqc6OQHHu6PZ-25" edge="1">
          <mxGeometry relative="1" as="geometry" />
        </mxCell>
        <mxCell id="6S7R1LXf0X3z3ujbFeZb-11" value="Click về trang chủ" style="shape=parallelogram;perimeter=parallelogramPerimeter;whiteSpace=wrap;html=1;fixedSize=1;" parent="WIyWlLk6GJQsqaUBKTNV-1" vertex="1">
          <mxGeometry x="530" y="200" width="130" height="30" as="geometry" />
        </mxCell>
        <mxCell id="6S7R1LXf0X3z3ujbFeZb-12" value="" style="endArrow=classic;html=1;rounded=0;exitX=0.5;exitY=1;exitDx=0;exitDy=0;entryX=0.5;entryY=0;entryDx=0;entryDy=0;" parent="WIyWlLk6GJQsqaUBKTNV-1" source="6S7R1LXf0X3z3ujbFeZb-8" target="6S7R1LXf0X3z3ujbFeZb-10" edge="1">
          <mxGeometry width="50" height="50" relative="1" as="geometry">
            <mxPoint x="460" y="250" as="sourcePoint" />
            <mxPoint x="510" y="200" as="targetPoint" />
          </mxGeometry>
        </mxCell>
        <mxCell id="6S7R1LXf0X3z3ujbFeZb-14" value="" style="endArrow=classic;html=1;rounded=0;" parent="WIyWlLk6GJQsqaUBKTNV-1" source="6S7R1LXf0X3z3ujbFeZb-8" target="6S7R1LXf0X3z3ujbFeZb-11" edge="1">
          <mxGeometry width="50" height="50" relative="1" as="geometry">
            <mxPoint x="270" y="238" as="sourcePoint" />
            <mxPoint x="120" y="270" as="targetPoint" />
          </mxGeometry>
        </mxCell>
        <mxCell id="8VdCpqw6Dqc6OQHHu6PZ-18" style="edgeStyle=orthogonalEdgeStyle;rounded=0;orthogonalLoop=1;jettySize=auto;html=1;exitX=1;exitY=0.5;exitDx=0;exitDy=0;entryX=0;entryY=0.5;entryDx=0;entryDy=0;" parent="WIyWlLk6GJQsqaUBKTNV-1" source="6S7R1LXf0X3z3ujbFeZb-15" target="8VdCpqw6Dqc6OQHHu6PZ-17" edge="1">
          <mxGeometry relative="1" as="geometry" />
        </mxCell>
        <mxCell id="6S7R1LXf0X3z3ujbFeZb-15" value="Lệnh tìm kiếm." style="rounded=0;whiteSpace=wrap;html=1;" parent="WIyWlLk6GJQsqaUBKTNV-1" vertex="1">
          <mxGeometry x="407.5" y="360" width="145" height="60" as="geometry" />
        </mxCell>
        <mxCell id="6S7R1LXf0X3z3ujbFeZb-16" value="" style="endArrow=classic;html=1;rounded=0;entryX=0.5;entryY=0;entryDx=0;entryDy=0;exitX=0.5;exitY=1;exitDx=0;exitDy=0;" parent="WIyWlLk6GJQsqaUBKTNV-1" source="6S7R1LXf0X3z3ujbFeZb-10" target="6S7R1LXf0X3z3ujbFeZb-15" edge="1">
          <mxGeometry width="50" height="50" relative="1" as="geometry">
            <mxPoint x="190" y="330" as="sourcePoint" />
            <mxPoint x="240" y="280" as="targetPoint" />
          </mxGeometry>
        </mxCell>
        <mxCell id="6S7R1LXf0X3z3ujbFeZb-20" value="Click vật phẩm" style="shape=parallelogram;perimeter=parallelogramPerimeter;whiteSpace=wrap;html=1;fixedSize=1;" parent="WIyWlLk6GJQsqaUBKTNV-1" vertex="1">
          <mxGeometry x="420" y="440" width="120" height="30" as="geometry" />
        </mxCell>
        <mxCell id="6S7R1LXf0X3z3ujbFeZb-21" value="" style="endArrow=classic;html=1;rounded=0;entryX=0.5;entryY=0;entryDx=0;entryDy=0;exitX=0.5;exitY=1;exitDx=0;exitDy=0;" parent="WIyWlLk6GJQsqaUBKTNV-1" source="6S7R1LXf0X3z3ujbFeZb-15" target="6S7R1LXf0X3z3ujbFeZb-20" edge="1">
          <mxGeometry width="50" height="50" relative="1" as="geometry">
            <mxPoint x="330" y="360" as="sourcePoint" />
            <mxPoint x="295" y="430" as="targetPoint" />
          </mxGeometry>
        </mxCell>
        <mxCell id="8VdCpqw6Dqc6OQHHu6PZ-12" style="edgeStyle=orthogonalEdgeStyle;rounded=0;orthogonalLoop=1;jettySize=auto;html=1;exitX=0;exitY=0.5;exitDx=0;exitDy=0;entryX=1;entryY=0.5;entryDx=0;entryDy=0;" parent="WIyWlLk6GJQsqaUBKTNV-1" source="6S7R1LXf0X3z3ujbFeZb-22" target="6S7R1LXf0X3z3ujbFeZb-40" edge="1">
          <mxGeometry relative="1" as="geometry">
            <mxPoint x="360" y="300" as="targetPoint" />
            <Array as="points">
              <mxPoint x="360" y="525" />
              <mxPoint x="360" y="305" />
            </Array>
          </mxGeometry>
        </mxCell>
        <mxCell id="8VdCpqw6Dqc6OQHHu6PZ-20" style="edgeStyle=orthogonalEdgeStyle;rounded=0;orthogonalLoop=1;jettySize=auto;html=1;exitX=1;exitY=0.25;exitDx=0;exitDy=0;" parent="WIyWlLk6GJQsqaUBKTNV-1" source="6S7R1LXf0X3z3ujbFeZb-22" target="8VdCpqw6Dqc6OQHHu6PZ-17" edge="1">
          <mxGeometry relative="1" as="geometry" />
        </mxCell>
        <mxCell id="8VdCpqw6Dqc6OQHHu6PZ-21" style="edgeStyle=orthogonalEdgeStyle;rounded=0;orthogonalLoop=1;jettySize=auto;html=1;exitX=1;exitY=0.75;exitDx=0;exitDy=0;entryX=0.5;entryY=0;entryDx=0;entryDy=0;" parent="WIyWlLk6GJQsqaUBKTNV-1" source="6S7R1LXf0X3z3ujbFeZb-22" target="6S7R1LXf0X3z3ujbFeZb-24" edge="1">
          <mxGeometry relative="1" as="geometry">
            <Array as="points">
              <mxPoint x="650" y="540" />
              <mxPoint x="650" y="580" />
              <mxPoint x="780" y="580" />
            </Array>
          </mxGeometry>
        </mxCell>
        <mxCell id="O2-hMlVbb9kDlJ42-0CS-127" style="edgeStyle=orthogonalEdgeStyle;rounded=0;orthogonalLoop=1;jettySize=auto;html=1;exitX=0.5;exitY=1;exitDx=0;exitDy=0;entryX=0.5;entryY=0;entryDx=0;entryDy=0;" edge="1" parent="WIyWlLk6GJQsqaUBKTNV-1" source="6S7R1LXf0X3z3ujbFeZb-22" target="O2-hMlVbb9kDlJ42-0CS-126">
          <mxGeometry relative="1" as="geometry" />
        </mxCell>
        <mxCell id="6S7R1LXf0X3z3ujbFeZb-22" value="Thông tin vật phẩm" style="rounded=0;whiteSpace=wrap;html=1;" parent="WIyWlLk6GJQsqaUBKTNV-1" vertex="1">
          <mxGeometry x="410" y="495" width="140" height="60" as="geometry" />
        </mxCell>
        <mxCell id="6S7R1LXf0X3z3ujbFeZb-23" value="" style="endArrow=classic;html=1;rounded=0;" parent="WIyWlLk6GJQsqaUBKTNV-1" source="6S7R1LXf0X3z3ujbFeZb-20" target="6S7R1LXf0X3z3ujbFeZb-22" edge="1">
          <mxGeometry width="50" height="50" relative="1" as="geometry">
            <mxPoint x="320" y="620" as="sourcePoint" />
            <mxPoint x="370" y="570" as="targetPoint" />
          </mxGeometry>
        </mxCell>
        <mxCell id="6S7R1LXf0X3z3ujbFeZb-24" value="Click thêm vào giỏ&lt;br&gt;(Ghi chú: giỏ được lưu tạm thời, chỉ khi xác nhận mua hàng mới ghi vào của thông tin của khách hàng)" style="shape=parallelogram;perimeter=parallelogramPerimeter;whiteSpace=wrap;html=1;fixedSize=1;" parent="WIyWlLk6GJQsqaUBKTNV-1" vertex="1">
          <mxGeometry x="640" y="605" width="280" height="70" as="geometry" />
        </mxCell>
        <mxCell id="6S7R1LXf0X3z3ujbFeZb-28" value="Gõ số lượng (mặc định trước là 1, không để trống hay ký tự ngoài số)" style="shape=parallelogram;perimeter=parallelogramPerimeter;whiteSpace=wrap;html=1;fixedSize=1;" parent="WIyWlLk6GJQsqaUBKTNV-1" vertex="1">
          <mxGeometry x="672.5" y="495" width="215" height="60" as="geometry" />
        </mxCell>
        <mxCell id="6S7R1LXf0X3z3ujbFeZb-29" value="" style="endArrow=classic;html=1;rounded=0;" parent="WIyWlLk6GJQsqaUBKTNV-1" source="6S7R1LXf0X3z3ujbFeZb-22" target="6S7R1LXf0X3z3ujbFeZb-28" edge="1">
          <mxGeometry width="50" height="50" relative="1" as="geometry">
            <mxPoint x="450" y="470" as="sourcePoint" />
            <mxPoint x="500" y="420" as="targetPoint" />
          </mxGeometry>
        </mxCell>
        <mxCell id="6S7R1LXf0X3z3ujbFeZb-30" value="" style="endArrow=classic;html=1;rounded=0;" parent="WIyWlLk6GJQsqaUBKTNV-1" source="6S7R1LXf0X3z3ujbFeZb-28" target="6S7R1LXf0X3z3ujbFeZb-24" edge="1">
          <mxGeometry width="50" height="50" relative="1" as="geometry">
            <mxPoint x="720" y="580" as="sourcePoint" />
            <mxPoint x="770" y="530" as="targetPoint" />
          </mxGeometry>
        </mxCell>
        <mxCell id="O2-hMlVbb9kDlJ42-0CS-90" style="edgeStyle=orthogonalEdgeStyle;rounded=0;orthogonalLoop=1;jettySize=auto;html=1;exitX=1;exitY=0.5;exitDx=0;exitDy=0;entryX=0;entryY=0.5;entryDx=0;entryDy=0;" edge="1" parent="WIyWlLk6GJQsqaUBKTNV-1" source="6S7R1LXf0X3z3ujbFeZb-31" target="O2-hMlVbb9kDlJ42-0CS-89">
          <mxGeometry relative="1" as="geometry" />
        </mxCell>
        <mxCell id="6S7R1LXf0X3z3ujbFeZb-31" value="Guest (chưa đăng nhập)?" style="rhombus;whiteSpace=wrap;html=1;" parent="WIyWlLk6GJQsqaUBKTNV-1" vertex="1">
          <mxGeometry x="960" y="545" width="120" height="90" as="geometry" />
        </mxCell>
        <mxCell id="6S7R1LXf0X3z3ujbFeZb-33" value="No" style="edgeStyle=orthogonalEdgeStyle;rounded=0;html=1;jettySize=auto;orthogonalLoop=1;fontSize=11;endArrow=block;endFill=0;endSize=8;strokeWidth=1;shadow=0;labelBackgroundColor=none;exitX=0.5;exitY=1;exitDx=0;exitDy=0;entryX=1;entryY=0.5;entryDx=0;entryDy=0;" parent="WIyWlLk6GJQsqaUBKTNV-1" source="6S7R1LXf0X3z3ujbFeZb-31" target="6S7R1LXf0X3z3ujbFeZb-34" edge="1">
          <mxGeometry x="-0.9497" y="20" relative="1" as="geometry">
            <mxPoint as="offset" />
            <mxPoint x="490" y="700" as="sourcePoint" />
            <mxPoint x="60" y="410" as="targetPoint" />
            <Array as="points">
              <mxPoint x="1020" y="690" />
              <mxPoint x="580" y="690" />
              <mxPoint x="580" y="580" />
              <mxPoint x="101" y="580" />
              <mxPoint x="101" y="405" />
            </Array>
          </mxGeometry>
        </mxCell>
        <mxCell id="O2-hMlVbb9kDlJ42-0CS-11" style="edgeStyle=orthogonalEdgeStyle;rounded=0;orthogonalLoop=1;jettySize=auto;html=1;exitX=0;exitY=0.5;exitDx=0;exitDy=0;entryX=0.5;entryY=0;entryDx=0;entryDy=0;" edge="1" parent="WIyWlLk6GJQsqaUBKTNV-1" source="6S7R1LXf0X3z3ujbFeZb-34" target="O2-hMlVbb9kDlJ42-0CS-24">
          <mxGeometry relative="1" as="geometry">
            <mxPoint x="-417" y="420" as="targetPoint" />
            <Array as="points">
              <mxPoint x="-420" y="405" />
            </Array>
          </mxGeometry>
        </mxCell>
        <mxCell id="O2-hMlVbb9kDlJ42-0CS-22" style="edgeStyle=orthogonalEdgeStyle;rounded=0;orthogonalLoop=1;jettySize=auto;html=1;exitX=0.5;exitY=0;exitDx=0;exitDy=0;entryX=0.5;entryY=1;entryDx=0;entryDy=0;" edge="1" parent="WIyWlLk6GJQsqaUBKTNV-1" source="6S7R1LXf0X3z3ujbFeZb-34" target="6S7R1LXf0X3z3ujbFeZb-9">
          <mxGeometry relative="1" as="geometry" />
        </mxCell>
        <mxCell id="O2-hMlVbb9kDlJ42-0CS-28" style="edgeStyle=orthogonalEdgeStyle;rounded=0;orthogonalLoop=1;jettySize=auto;html=1;exitX=0;exitY=0.5;exitDx=0;exitDy=0;entryX=0.5;entryY=0;entryDx=0;entryDy=0;" edge="1" parent="WIyWlLk6GJQsqaUBKTNV-1" source="6S7R1LXf0X3z3ujbFeZb-34" target="O2-hMlVbb9kDlJ42-0CS-26">
          <mxGeometry relative="1" as="geometry">
            <Array as="points">
              <mxPoint x="-160" y="405" />
            </Array>
          </mxGeometry>
        </mxCell>
        <mxCell id="6S7R1LXf0X3z3ujbFeZb-34" value="Login" style="rounded=0;whiteSpace=wrap;html=1;" parent="WIyWlLk6GJQsqaUBKTNV-1" vertex="1">
          <mxGeometry x="-10" y="390" width="90" height="30" as="geometry" />
        </mxCell>
        <mxCell id="6S7R1LXf0X3z3ujbFeZb-44" value="Guest (chưa đăng nhập)?" style="rhombus;whiteSpace=wrap;html=1;" parent="WIyWlLk6GJQsqaUBKTNV-1" vertex="1">
          <mxGeometry x="210" y="360" width="120" height="90" as="geometry" />
        </mxCell>
        <mxCell id="6S7R1LXf0X3z3ujbFeZb-45" value="" style="endArrow=classic;html=1;rounded=0;" parent="WIyWlLk6GJQsqaUBKTNV-1" source="6S7R1LXf0X3z3ujbFeZb-40" target="6S7R1LXf0X3z3ujbFeZb-44" edge="1">
          <mxGeometry width="50" height="50" relative="1" as="geometry">
            <mxPoint x="317" y="240" as="sourcePoint" />
            <mxPoint x="240" y="330" as="targetPoint" />
          </mxGeometry>
        </mxCell>
        <mxCell id="6S7R1LXf0X3z3ujbFeZb-46" value="No" style="edgeStyle=orthogonalEdgeStyle;rounded=0;html=1;jettySize=auto;orthogonalLoop=1;fontSize=11;endArrow=block;endFill=0;endSize=8;strokeWidth=1;shadow=0;labelBackgroundColor=none;exitX=0;exitY=0.5;exitDx=0;exitDy=0;entryX=1;entryY=0.5;entryDx=0;entryDy=0;" parent="WIyWlLk6GJQsqaUBKTNV-1" source="6S7R1LXf0X3z3ujbFeZb-44" target="6S7R1LXf0X3z3ujbFeZb-34" edge="1">
          <mxGeometry x="-0.8947" y="15" relative="1" as="geometry">
            <mxPoint as="offset" />
            <mxPoint x="640" y="640" as="sourcePoint" />
            <mxPoint x="70" y="415" as="targetPoint" />
            <Array as="points">
              <mxPoint x="210" y="405" />
            </Array>
          </mxGeometry>
        </mxCell>
        <mxCell id="6S7R1LXf0X3z3ujbFeZb-47" value="" style="group" parent="WIyWlLk6GJQsqaUBKTNV-1" vertex="1" connectable="0">
          <mxGeometry x="420" y="270" width="240" height="50" as="geometry" />
        </mxCell>
        <mxCell id="6S7R1LXf0X3z3ujbFeZb-10" value="Click tìm kiếm" style="shape=parallelogram;perimeter=parallelogramPerimeter;whiteSpace=wrap;html=1;fixedSize=1;" parent="6S7R1LXf0X3z3ujbFeZb-47" vertex="1">
          <mxGeometry y="20" width="120" height="30" as="geometry" />
        </mxCell>
        <mxCell id="6S7R1LXf0X3z3ujbFeZb-18" value="Ghi chú: click lên icon, chưa cần Enter" style="text;html=1;strokeColor=none;fillColor=none;align=center;verticalAlign=middle;whiteSpace=wrap;rounded=0;" parent="6S7R1LXf0X3z3ujbFeZb-47" vertex="1">
          <mxGeometry x="114" width="126" height="40" as="geometry" />
        </mxCell>
        <mxCell id="6S7R1LXf0X3z3ujbFeZb-48" value="Yes" style="rounded=0;html=1;jettySize=auto;orthogonalLoop=1;fontSize=11;endArrow=block;endFill=0;endSize=8;strokeWidth=1;shadow=0;labelBackgroundColor=none;edgeStyle=orthogonalEdgeStyle;exitX=0.5;exitY=1;exitDx=0;exitDy=0;entryX=0.5;entryY=0;entryDx=0;entryDy=0;" parent="WIyWlLk6GJQsqaUBKTNV-1" source="6S7R1LXf0X3z3ujbFeZb-44" target="6S7R1LXf0X3z3ujbFeZb-51" edge="1">
          <mxGeometry x="-1" y="20" relative="1" as="geometry">
            <mxPoint as="offset" />
            <mxPoint x="255" y="627.5" as="sourcePoint" />
            <mxPoint x="105" y="632.5" as="targetPoint" />
            <Array as="points">
              <mxPoint x="270" y="610" />
              <mxPoint x="180" y="610" />
            </Array>
          </mxGeometry>
        </mxCell>
        <mxCell id="O2-hMlVbb9kDlJ42-0CS-37" style="edgeStyle=orthogonalEdgeStyle;rounded=0;orthogonalLoop=1;jettySize=auto;html=1;exitX=0.5;exitY=1;exitDx=0;exitDy=0;entryX=0.5;entryY=0;entryDx=0;entryDy=0;" edge="1" parent="WIyWlLk6GJQsqaUBKTNV-1" source="6S7R1LXf0X3z3ujbFeZb-51" target="O2-hMlVbb9kDlJ42-0CS-36">
          <mxGeometry relative="1" as="geometry" />
        </mxCell>
        <mxCell id="O2-hMlVbb9kDlJ42-0CS-63" style="edgeStyle=orthogonalEdgeStyle;rounded=0;orthogonalLoop=1;jettySize=auto;html=1;exitX=0.5;exitY=1;exitDx=0;exitDy=0;entryX=0.5;entryY=0;entryDx=0;entryDy=0;" edge="1" parent="WIyWlLk6GJQsqaUBKTNV-1" source="6S7R1LXf0X3z3ujbFeZb-51" target="O2-hMlVbb9kDlJ42-0CS-62">
          <mxGeometry relative="1" as="geometry" />
        </mxCell>
        <mxCell id="6S7R1LXf0X3z3ujbFeZb-51" value="Danh sách order (Khách)" style="rounded=0;whiteSpace=wrap;html=1;" parent="WIyWlLk6GJQsqaUBKTNV-1" vertex="1">
          <mxGeometry x="130" y="697.5" width="100" height="37.5" as="geometry" />
        </mxCell>
        <mxCell id="6S7R1LXf0X3z3ujbFeZb-53" value="" style="rounded=0;html=1;jettySize=auto;orthogonalLoop=1;fontSize=11;endArrow=block;endFill=0;endSize=8;strokeWidth=1;shadow=0;labelBackgroundColor=none;edgeStyle=orthogonalEdgeStyle;exitX=0.5;exitY=0;exitDx=0;exitDy=0;" parent="WIyWlLk6GJQsqaUBKTNV-1" source="6S7R1LXf0X3z3ujbFeZb-11" target="6S7R1LXf0X3z3ujbFeZb-8" edge="1">
          <mxGeometry relative="1" as="geometry">
            <mxPoint x="590" y="180" as="sourcePoint" />
            <mxPoint x="280" y="120" as="targetPoint" />
            <Array as="points">
              <mxPoint x="595" y="170" />
              <mxPoint x="270" y="170" />
            </Array>
          </mxGeometry>
        </mxCell>
        <mxCell id="8VdCpqw6Dqc6OQHHu6PZ-14" style="edgeStyle=orthogonalEdgeStyle;rounded=0;orthogonalLoop=1;jettySize=auto;html=1;exitX=0.5;exitY=1;exitDx=0;exitDy=0;entryX=0.5;entryY=0;entryDx=0;entryDy=0;" parent="WIyWlLk6GJQsqaUBKTNV-1" source="6S7R1LXf0X3z3ujbFeZb-54" target="8VdCpqw6Dqc6OQHHu6PZ-13" edge="1">
          <mxGeometry relative="1" as="geometry" />
        </mxCell>
        <mxCell id="6S7R1LXf0X3z3ujbFeZb-54" value="Login khách mua hàng" style="shape=parallelogram;perimeter=parallelogramPerimeter;whiteSpace=wrap;html=1;fixedSize=1;" parent="WIyWlLk6GJQsqaUBKTNV-1" vertex="1">
          <mxGeometry x="-125" y="550" width="150" height="30" as="geometry" />
        </mxCell>
        <mxCell id="8VdCpqw6Dqc6OQHHu6PZ-15" style="edgeStyle=orthogonalEdgeStyle;rounded=0;orthogonalLoop=1;jettySize=auto;html=1;exitX=0.5;exitY=1;exitDx=0;exitDy=0;" parent="WIyWlLk6GJQsqaUBKTNV-1" source="6S7R1LXf0X3z3ujbFeZb-55" edge="1">
          <mxGeometry relative="1" as="geometry">
            <mxPoint x="-145" y="635" as="targetPoint" />
          </mxGeometry>
        </mxCell>
        <mxCell id="6S7R1LXf0X3z3ujbFeZb-55" value="Login khách bán hàng" style="shape=parallelogram;perimeter=parallelogramPerimeter;whiteSpace=wrap;html=1;fixedSize=1;" parent="WIyWlLk6GJQsqaUBKTNV-1" vertex="1">
          <mxGeometry x="-315" y="550" width="150" height="30" as="geometry" />
        </mxCell>
        <mxCell id="6S7R1LXf0X3z3ujbFeZb-58" value="Login hợp lệ?" style="rhombus;whiteSpace=wrap;html=1;" parent="WIyWlLk6GJQsqaUBKTNV-1" vertex="1">
          <mxGeometry x="-205" y="722.5" width="120" height="45" as="geometry" />
        </mxCell>
        <mxCell id="8VdCpqw6Dqc6OQHHu6PZ-0" value="No" style="edgeStyle=orthogonalEdgeStyle;rounded=0;html=1;jettySize=auto;orthogonalLoop=1;fontSize=11;endArrow=block;endFill=0;endSize=8;strokeWidth=1;shadow=0;labelBackgroundColor=none;exitX=1;exitY=0.5;exitDx=0;exitDy=0;entryX=0.5;entryY=0;entryDx=0;entryDy=0;" parent="WIyWlLk6GJQsqaUBKTNV-1" source="6S7R1LXf0X3z3ujbFeZb-58" target="8VdCpqw6Dqc6OQHHu6PZ-1" edge="1">
          <mxGeometry x="-0.8947" y="15" relative="1" as="geometry">
            <mxPoint as="offset" />
            <mxPoint x="5" y="745" as="sourcePoint" />
            <mxPoint x="15" y="725" as="targetPoint" />
            <Array as="points">
              <mxPoint x="35" y="745" />
            </Array>
          </mxGeometry>
        </mxCell>
        <mxCell id="8VdCpqw6Dqc6OQHHu6PZ-1" value="FE - Pop-up login thất bại" style="rounded=0;whiteSpace=wrap;html=1;" parent="WIyWlLk6GJQsqaUBKTNV-1" vertex="1">
          <mxGeometry x="-25" y="722.5" width="120" height="40" as="geometry" />
        </mxCell>
        <mxCell id="8VdCpqw6Dqc6OQHHu6PZ-5" value="Yes" style="rounded=0;html=1;jettySize=auto;orthogonalLoop=1;fontSize=11;endArrow=block;endFill=0;endSize=8;strokeWidth=1;shadow=0;labelBackgroundColor=none;edgeStyle=orthogonalEdgeStyle;exitX=0;exitY=0.5;exitDx=0;exitDy=0;entryX=0.5;entryY=0;entryDx=0;entryDy=0;" parent="WIyWlLk6GJQsqaUBKTNV-1" source="6S7R1LXf0X3z3ujbFeZb-58" target="8VdCpqw6Dqc6OQHHu6PZ-6" edge="1">
          <mxGeometry x="-1" y="20" relative="1" as="geometry">
            <mxPoint as="offset" />
            <mxPoint x="-195" y="575" as="sourcePoint" />
            <mxPoint x="-195" y="695" as="targetPoint" />
            <Array as="points">
              <mxPoint x="-250" y="745" />
            </Array>
          </mxGeometry>
        </mxCell>
        <mxCell id="8VdCpqw6Dqc6OQHHu6PZ-6" value="Quay lại màn hình cuối. (Ghi chú: có biến quay lại màn hình cuối)" style="rounded=0;whiteSpace=wrap;html=1;" parent="WIyWlLk6GJQsqaUBKTNV-1" vertex="1">
          <mxGeometry x="-315" y="815" width="130" height="60" as="geometry" />
        </mxCell>
        <mxCell id="8VdCpqw6Dqc6OQHHu6PZ-16" style="edgeStyle=orthogonalEdgeStyle;rounded=0;orthogonalLoop=1;jettySize=auto;html=1;exitX=0.5;exitY=1;exitDx=0;exitDy=0;entryX=0.5;entryY=0;entryDx=0;entryDy=0;" parent="WIyWlLk6GJQsqaUBKTNV-1" source="8VdCpqw6Dqc6OQHHu6PZ-13" target="6S7R1LXf0X3z3ujbFeZb-58" edge="1">
          <mxGeometry relative="1" as="geometry" />
        </mxCell>
        <mxCell id="8VdCpqw6Dqc6OQHHu6PZ-13" value="Server: kiểm tra thông tin đăng nhập." style="rounded=0;whiteSpace=wrap;html=1;" parent="WIyWlLk6GJQsqaUBKTNV-1" vertex="1">
          <mxGeometry x="-205" y="635" width="120" height="60" as="geometry" />
        </mxCell>
        <mxCell id="8VdCpqw6Dqc6OQHHu6PZ-23" style="edgeStyle=orthogonalEdgeStyle;rounded=0;orthogonalLoop=1;jettySize=auto;html=1;exitX=1;exitY=0.5;exitDx=0;exitDy=0;entryX=0;entryY=0.5;entryDx=0;entryDy=0;" parent="WIyWlLk6GJQsqaUBKTNV-1" source="8VdCpqw6Dqc6OQHHu6PZ-17" target="8VdCpqw6Dqc6OQHHu6PZ-22" edge="1">
          <mxGeometry relative="1" as="geometry" />
        </mxCell>
        <mxCell id="8VdCpqw6Dqc6OQHHu6PZ-17" value="Click xem giỏ hàng" style="shape=parallelogram;perimeter=parallelogramPerimeter;whiteSpace=wrap;html=1;fixedSize=1;" parent="WIyWlLk6GJQsqaUBKTNV-1" vertex="1">
          <mxGeometry x="580" y="375" width="140" height="30" as="geometry" />
        </mxCell>
        <mxCell id="O2-hMlVbb9kDlJ42-0CS-33" style="edgeStyle=orthogonalEdgeStyle;rounded=0;orthogonalLoop=1;jettySize=auto;html=1;exitX=1;exitY=0.5;exitDx=0;exitDy=0;" edge="1" parent="WIyWlLk6GJQsqaUBKTNV-1" source="8VdCpqw6Dqc6OQHHu6PZ-22" target="O2-hMlVbb9kDlJ42-0CS-32">
          <mxGeometry relative="1" as="geometry" />
        </mxCell>
        <mxCell id="8VdCpqw6Dqc6OQHHu6PZ-22" value="Giỏ hàng" style="rounded=0;whiteSpace=wrap;html=1;" parent="WIyWlLk6GJQsqaUBKTNV-1" vertex="1">
          <mxGeometry x="760" y="360" width="105" height="60" as="geometry" />
        </mxCell>
        <mxCell id="8VdCpqw6Dqc6OQHHu6PZ-25" value="Guest (chưa đăng nhập)?" style="rhombus;whiteSpace=wrap;html=1;" parent="WIyWlLk6GJQsqaUBKTNV-1" vertex="1">
          <mxGeometry x="-25" y="170" width="120" height="90" as="geometry" />
        </mxCell>
        <mxCell id="8VdCpqw6Dqc6OQHHu6PZ-27" value="No" style="edgeStyle=orthogonalEdgeStyle;rounded=0;html=1;jettySize=auto;orthogonalLoop=1;fontSize=11;endArrow=block;endFill=0;endSize=8;strokeWidth=1;shadow=0;labelBackgroundColor=none;exitX=0.5;exitY=1;exitDx=0;exitDy=0;entryX=0.5;entryY=0;entryDx=0;entryDy=0;" parent="WIyWlLk6GJQsqaUBKTNV-1" source="8VdCpqw6Dqc6OQHHu6PZ-25" target="6S7R1LXf0X3z3ujbFeZb-9" edge="1">
          <mxGeometry x="-0.8947" y="15" relative="1" as="geometry">
            <mxPoint as="offset" />
            <mxPoint x="220" y="415" as="sourcePoint" />
            <mxPoint x="90" y="415" as="targetPoint" />
            <Array as="points">
              <mxPoint x="35" y="280" />
              <mxPoint x="35" y="280" />
            </Array>
          </mxGeometry>
        </mxCell>
        <mxCell id="8VdCpqw6Dqc6OQHHu6PZ-28" value="Yes" style="edgeStyle=orthogonalEdgeStyle;rounded=0;html=1;jettySize=auto;orthogonalLoop=1;fontSize=11;endArrow=block;endFill=0;endSize=8;strokeWidth=1;shadow=0;labelBackgroundColor=none;exitX=0;exitY=0.5;exitDx=0;exitDy=0;entryX=1;entryY=0.5;entryDx=0;entryDy=0;" parent="WIyWlLk6GJQsqaUBKTNV-1" source="8VdCpqw6Dqc6OQHHu6PZ-25" target="8VdCpqw6Dqc6OQHHu6PZ-29" edge="1">
          <mxGeometry x="-0.8947" y="15" relative="1" as="geometry">
            <mxPoint as="offset" />
            <mxPoint x="-55" y="220" as="sourcePoint" />
            <mxPoint x="-55" y="250" as="targetPoint" />
            <Array as="points">
              <mxPoint x="-50" y="215" />
              <mxPoint x="-50" y="215" />
            </Array>
          </mxGeometry>
        </mxCell>
        <mxCell id="8VdCpqw6Dqc6OQHHu6PZ-40" style="edgeStyle=orthogonalEdgeStyle;rounded=0;orthogonalLoop=1;jettySize=auto;html=1;exitX=0.5;exitY=0;exitDx=0;exitDy=0;entryX=0.5;entryY=0;entryDx=0;entryDy=0;" parent="WIyWlLk6GJQsqaUBKTNV-1" source="8VdCpqw6Dqc6OQHHu6PZ-29" target="6S7R1LXf0X3z3ujbFeZb-8" edge="1">
          <mxGeometry relative="1" as="geometry">
            <mxPoint x="319" y="200" as="targetPoint" />
            <Array as="points">
              <mxPoint x="-190" y="170" />
              <mxPoint x="270" y="170" />
            </Array>
          </mxGeometry>
        </mxCell>
        <mxCell id="8VdCpqw6Dqc6OQHHu6PZ-29" value="Click đăng xuất" style="shape=parallelogram;perimeter=parallelogramPerimeter;whiteSpace=wrap;html=1;fixedSize=1;" parent="WIyWlLk6GJQsqaUBKTNV-1" vertex="1">
          <mxGeometry x="-250" y="200" width="120" height="30" as="geometry" />
        </mxCell>
        <mxCell id="Ki1Jrka_W-PRbo3_lZc7-0" value="" style="group" parent="WIyWlLk6GJQsqaUBKTNV-1" vertex="1" connectable="0">
          <mxGeometry x="510" y="-160" width="270" height="135" as="geometry" />
        </mxCell>
        <mxCell id="6S7R1LXf0X3z3ujbFeZb-2" value="Ghi chú: tạm thời chỉ kết nối trong khu vực của LAN (thông qua router), không qua Internet." style="text;html=1;strokeColor=none;fillColor=none;align=center;verticalAlign=middle;whiteSpace=wrap;rounded=0;" parent="Ki1Jrka_W-PRbo3_lZc7-0" vertex="1">
          <mxGeometry width="270" height="30" as="geometry" />
        </mxCell>
        <mxCell id="6S7R1LXf0X3z3ujbFeZb-4" value="&lt;span style=&quot;background-color: initial;&quot;&gt;Server có đang hoạt động?&lt;br&gt;&lt;/span&gt;Server có đang kết nối với mạng LAN?&lt;br&gt;Client có đang kết nối với mạng LAN cùng của server?" style="rounded=0;whiteSpace=wrap;html=1;align=left;" parent="Ki1Jrka_W-PRbo3_lZc7-0" vertex="1">
          <mxGeometry x="20" y="45" width="200" height="90" as="geometry" />
        </mxCell>
        <mxCell id="O2-hMlVbb9kDlJ42-0CS-2" style="edgeStyle=orthogonalEdgeStyle;rounded=0;orthogonalLoop=1;jettySize=auto;html=1;exitX=1;exitY=0.5;exitDx=0;exitDy=0;entryX=0;entryY=0.5;entryDx=0;entryDy=0;" edge="1" parent="WIyWlLk6GJQsqaUBKTNV-1" source="Ki1Jrka_W-PRbo3_lZc7-1" target="O2-hMlVbb9kDlJ42-0CS-1">
          <mxGeometry relative="1" as="geometry" />
        </mxCell>
        <mxCell id="Ki1Jrka_W-PRbo3_lZc7-1" value="Server: đa thread, một thread chạy chính while loop lắng nghe (TCP/IP)" style="rounded=0;whiteSpace=wrap;html=1;" parent="WIyWlLk6GJQsqaUBKTNV-1" vertex="1">
          <mxGeometry x="-15" y="50" width="150" height="60" as="geometry" />
        </mxCell>
        <mxCell id="Ki1Jrka_W-PRbo3_lZc7-3" value="func main:&lt;br&gt;&lt;span style=&quot;white-space: pre;&quot;&gt;&#x9;&lt;/span&gt;while true:&lt;br&gt;&lt;span style=&quot;white-space: pre;&quot;&gt;&#x9;&lt;/span&gt;&lt;span style=&quot;white-space: pre;&quot;&gt;&#x9;&lt;/span&gt;newsocketID = mainthread.listen()&lt;br&gt;&lt;span style=&quot;white-space: pre;&quot;&gt;&lt;span style=&quot;white-space: pre;&quot;&gt;&#x9;&lt;/span&gt;&lt;span style=&quot;white-space: pre;&quot;&gt;&#x9;&lt;/span&gt;if newsocketID is a socket:&lt;br&gt;&lt;span style=&quot;white-space: pre;&quot;&gt;&#x9;&lt;/span&gt;&lt;span style=&quot;white-space: pre;&quot;&gt;&#x9;&lt;span style=&quot;white-space: pre;&quot;&gt;&#x9;&lt;/span&gt;S&lt;/span&gt;ocketList.append(newsocketID)&lt;br&gt;&lt;/span&gt;&lt;span style=&quot;white-space: pre;&quot;&gt;&#x9;&lt;/span&gt;&lt;span style=&quot;white-space: pre;&quot;&gt;&#x9;&lt;span style=&quot;white-space: pre;&quot;&gt;&#x9;&lt;/span&gt;r&lt;/span&gt;un_newthread(client_thread, newsocketID)&lt;br&gt;&lt;br&gt;func client_thread(socketID):&lt;br&gt;&lt;span style=&quot;white-space: pre;&quot;&gt;&#x9;&lt;/span&gt;while true:&lt;br&gt;&lt;span style=&quot;white-space: pre;&quot;&gt;&#x9;&lt;/span&gt;&lt;span style=&quot;white-space: pre;&quot;&gt;&#x9;&lt;/span&gt;message = SocketList.at(socketID).listen()&lt;br&gt;&lt;span style=&quot;white-space: pre;&quot;&gt;&#x9;&lt;/span&gt;&lt;span style=&quot;white-space: pre;&quot;&gt;&#x9;&lt;/span&gt;# message có nội dung theo thứ tự:&lt;br&gt;&lt;span style=&quot;white-space: pre;&quot;&gt;&#x9;&lt;/span&gt;&lt;span style=&quot;white-space: pre;&quot;&gt;&#x9;&lt;/span&gt;# size: số byte của toàn bộ tin nhắn&lt;br&gt;&lt;span style=&quot;white-space: pre;&quot;&gt;&#x9;&lt;/span&gt;&lt;span style=&quot;white-space: pre;&quot;&gt;&#x9;&lt;/span&gt;# char[size]: nội dung tin nhắn, gồm:&lt;br&gt;&lt;span style=&quot;white-space: pre;&quot;&gt;&#x9;&lt;/span&gt;&lt;span style=&quot;white-space: pre;&quot;&gt;&#x9;&lt;/span&gt;&amp;nbsp; #cmd_num: lệnh của server (FE), sử dụng enum theo thứ tự được đánh số trong UML (lúc ghép code sẽ nối lại sau)&lt;br&gt;&lt;span style=&quot;white-space: pre;&quot;&gt;&#x9;&lt;/span&gt;&lt;span style=&quot;white-space: pre;&quot;&gt;&#x9;&lt;/span&gt;&amp;nbsp; #thông tin (xem các lệnh trong UML)." style="shape=card;whiteSpace=wrap;html=1;align=left;" parent="WIyWlLk6GJQsqaUBKTNV-1" vertex="1">
          <mxGeometry x="-520" y="-130" width="370" height="270" as="geometry" />
        </mxCell>
        <mxCell id="Ki1Jrka_W-PRbo3_lZc7-4" value="" style="shape=flexArrow;endArrow=classic;html=1;rounded=0;exitX=0;exitY=0.5;exitDx=0;exitDy=0;" parent="WIyWlLk6GJQsqaUBKTNV-1" source="Ki1Jrka_W-PRbo3_lZc7-1" target="Ki1Jrka_W-PRbo3_lZc7-3" edge="1">
          <mxGeometry width="50" height="50" relative="1" as="geometry">
            <mxPoint y="90" as="sourcePoint" />
            <mxPoint x="50" y="40" as="targetPoint" />
          </mxGeometry>
        </mxCell>
        <mxCell id="O2-hMlVbb9kDlJ42-0CS-4" style="edgeStyle=orthogonalEdgeStyle;rounded=0;orthogonalLoop=1;jettySize=auto;html=1;exitX=0.5;exitY=0;exitDx=0;exitDy=0;entryX=0.5;entryY=0;entryDx=0;entryDy=0;" edge="1" parent="WIyWlLk6GJQsqaUBKTNV-1" target="6S7R1LXf0X3z3ujbFeZb-8">
          <mxGeometry relative="1" as="geometry">
            <mxPoint x="270" y="110" as="sourcePoint" />
          </mxGeometry>
        </mxCell>
        <mxCell id="O2-hMlVbb9kDlJ42-0CS-101" style="rounded=0;orthogonalLoop=1;jettySize=auto;html=1;exitX=1;exitY=0.5;exitDx=0;exitDy=0;entryX=0;entryY=0.5;entryDx=0;entryDy=0;" edge="1" parent="WIyWlLk6GJQsqaUBKTNV-1" source="6S7R1LXf0X3z3ujbFeZb-8" target="O2-hMlVbb9kDlJ42-0CS-99">
          <mxGeometry relative="1" as="geometry" />
        </mxCell>
        <mxCell id="6S7R1LXf0X3z3ujbFeZb-8" value="Hiển thị trang chủ&lt;br&gt;(Output: .html)" style="rounded=0;whiteSpace=wrap;html=1;container=0;" parent="WIyWlLk6GJQsqaUBKTNV-1" vertex="1">
          <mxGeometry x="192.5" y="190" width="155" height="50" as="geometry" />
        </mxCell>
        <mxCell id="6S7R1LXf0X3z3ujbFeZb-40" value="Click xem danh sách order" style="shape=parallelogram;perimeter=parallelogramPerimeter;whiteSpace=wrap;html=1;fixedSize=1;" parent="WIyWlLk6GJQsqaUBKTNV-1" vertex="1">
          <mxGeometry x="182.5" y="300" width="175" height="30" as="geometry" />
        </mxCell>
        <mxCell id="6S7R1LXf0X3z3ujbFeZb-41" value="" style="endArrow=classic;html=1;rounded=0;entryX=0.5;entryY=0;entryDx=0;entryDy=0;" parent="WIyWlLk6GJQsqaUBKTNV-1" source="6S7R1LXf0X3z3ujbFeZb-8" target="6S7R1LXf0X3z3ujbFeZb-40" edge="1">
          <mxGeometry width="50" height="50" relative="1" as="geometry">
            <mxPoint x="330" y="250" as="sourcePoint" />
            <mxPoint x="295" y="340" as="targetPoint" />
          </mxGeometry>
        </mxCell>
        <mxCell id="O2-hMlVbb9kDlJ42-0CS-1" value="Server nhận kết nối và tạo một thread xử lý" style="rounded=0;whiteSpace=wrap;html=1;" vertex="1" parent="WIyWlLk6GJQsqaUBKTNV-1">
          <mxGeometry x="200" y="50" width="140" height="60" as="geometry" />
        </mxCell>
        <mxCell id="O2-hMlVbb9kDlJ42-0CS-20" style="edgeStyle=orthogonalEdgeStyle;rounded=0;orthogonalLoop=1;jettySize=auto;html=1;exitX=0.5;exitY=1;exitDx=0;exitDy=0;entryX=0.5;entryY=0;entryDx=0;entryDy=0;" edge="1" parent="WIyWlLk6GJQsqaUBKTNV-1" source="O2-hMlVbb9kDlJ42-0CS-10" target="O2-hMlVbb9kDlJ42-0CS-19">
          <mxGeometry relative="1" as="geometry" />
        </mxCell>
        <mxCell id="O2-hMlVbb9kDlJ42-0CS-10" value="Gõ thông tin đăng ký" style="shape=parallelogram;perimeter=parallelogramPerimeter;whiteSpace=wrap;html=1;fixedSize=1;" vertex="1" parent="WIyWlLk6GJQsqaUBKTNV-1">
          <mxGeometry x="-500" y="485" width="150" height="30" as="geometry" />
        </mxCell>
        <mxCell id="O2-hMlVbb9kDlJ42-0CS-13" value="Đăng ký hợp lệ?" style="rhombus;whiteSpace=wrap;html=1;" vertex="1" parent="WIyWlLk6GJQsqaUBKTNV-1">
          <mxGeometry x="-600" y="642.5" width="120" height="45" as="geometry" />
        </mxCell>
        <mxCell id="O2-hMlVbb9kDlJ42-0CS-14" value="No" style="edgeStyle=orthogonalEdgeStyle;rounded=0;html=1;jettySize=auto;orthogonalLoop=1;fontSize=11;endArrow=block;endFill=0;endSize=8;strokeWidth=1;shadow=0;labelBackgroundColor=none;exitX=1;exitY=0.5;exitDx=0;exitDy=0;entryX=0.5;entryY=0;entryDx=0;entryDy=0;" edge="1" parent="WIyWlLk6GJQsqaUBKTNV-1" source="O2-hMlVbb9kDlJ42-0CS-13" target="O2-hMlVbb9kDlJ42-0CS-15">
          <mxGeometry x="-0.8947" y="15" relative="1" as="geometry">
            <mxPoint as="offset" />
            <mxPoint x="-390" y="665" as="sourcePoint" />
            <mxPoint x="-380" y="645" as="targetPoint" />
            <Array as="points">
              <mxPoint x="-400" y="665" />
            </Array>
          </mxGeometry>
        </mxCell>
        <mxCell id="O2-hMlVbb9kDlJ42-0CS-23" style="edgeStyle=orthogonalEdgeStyle;rounded=0;orthogonalLoop=1;jettySize=auto;html=1;exitX=0.75;exitY=0;exitDx=0;exitDy=0;entryX=1;entryY=0.5;entryDx=0;entryDy=0;" edge="1" parent="WIyWlLk6GJQsqaUBKTNV-1" source="O2-hMlVbb9kDlJ42-0CS-15" target="O2-hMlVbb9kDlJ42-0CS-10">
          <mxGeometry relative="1" as="geometry">
            <Array as="points">
              <mxPoint x="-370" y="670" />
              <mxPoint x="-330" y="670" />
              <mxPoint x="-330" y="500" />
            </Array>
          </mxGeometry>
        </mxCell>
        <mxCell id="O2-hMlVbb9kDlJ42-0CS-15" value="FE - Pop-up đăng ký thất bại" style="rounded=0;whiteSpace=wrap;html=1;" vertex="1" parent="WIyWlLk6GJQsqaUBKTNV-1">
          <mxGeometry x="-460" y="735" width="120" height="40" as="geometry" />
        </mxCell>
        <mxCell id="O2-hMlVbb9kDlJ42-0CS-16" value="Yes" style="rounded=0;html=1;jettySize=auto;orthogonalLoop=1;fontSize=11;endArrow=block;endFill=0;endSize=8;strokeWidth=1;shadow=0;labelBackgroundColor=none;edgeStyle=orthogonalEdgeStyle;exitX=0;exitY=0.5;exitDx=0;exitDy=0;entryX=0.5;entryY=0;entryDx=0;entryDy=0;" edge="1" parent="WIyWlLk6GJQsqaUBKTNV-1" source="O2-hMlVbb9kDlJ42-0CS-13" target="O2-hMlVbb9kDlJ42-0CS-17">
          <mxGeometry x="-1" y="20" relative="1" as="geometry">
            <mxPoint as="offset" />
            <mxPoint x="-590" y="495" as="sourcePoint" />
            <mxPoint x="-590" y="615" as="targetPoint" />
            <Array as="points">
              <mxPoint x="-675" y="665" />
            </Array>
          </mxGeometry>
        </mxCell>
        <mxCell id="O2-hMlVbb9kDlJ42-0CS-17" value="Quay lại màn hình cuối. (Ghi chú: có biến quay lại màn hình cuối)" style="rounded=0;whiteSpace=wrap;html=1;" vertex="1" parent="WIyWlLk6GJQsqaUBKTNV-1">
          <mxGeometry x="-740" y="725" width="130" height="60" as="geometry" />
        </mxCell>
        <mxCell id="O2-hMlVbb9kDlJ42-0CS-18" style="edgeStyle=orthogonalEdgeStyle;rounded=0;orthogonalLoop=1;jettySize=auto;html=1;exitX=0.5;exitY=1;exitDx=0;exitDy=0;entryX=0.5;entryY=0;entryDx=0;entryDy=0;" edge="1" parent="WIyWlLk6GJQsqaUBKTNV-1" source="O2-hMlVbb9kDlJ42-0CS-19" target="O2-hMlVbb9kDlJ42-0CS-13">
          <mxGeometry relative="1" as="geometry">
            <Array as="points">
              <mxPoint x="-425" y="635" />
              <mxPoint x="-540" y="635" />
            </Array>
          </mxGeometry>
        </mxCell>
        <mxCell id="O2-hMlVbb9kDlJ42-0CS-19" value="Server: kiểm tra thông tin đăng nhập." style="rounded=0;whiteSpace=wrap;html=1;" vertex="1" parent="WIyWlLk6GJQsqaUBKTNV-1">
          <mxGeometry x="-485" y="555" width="120" height="60" as="geometry" />
        </mxCell>
        <mxCell id="O2-hMlVbb9kDlJ42-0CS-25" style="edgeStyle=orthogonalEdgeStyle;rounded=0;orthogonalLoop=1;jettySize=auto;html=1;exitX=0.5;exitY=1;exitDx=0;exitDy=0;entryX=0.5;entryY=0;entryDx=0;entryDy=0;" edge="1" parent="WIyWlLk6GJQsqaUBKTNV-1" source="O2-hMlVbb9kDlJ42-0CS-24" target="O2-hMlVbb9kDlJ42-0CS-10">
          <mxGeometry relative="1" as="geometry" />
        </mxCell>
        <mxCell id="O2-hMlVbb9kDlJ42-0CS-24" value="Đăng ký" style="rounded=0;whiteSpace=wrap;html=1;" vertex="1" parent="WIyWlLk6GJQsqaUBKTNV-1">
          <mxGeometry x="-480" y="420" width="120" height="50" as="geometry" />
        </mxCell>
        <mxCell id="O2-hMlVbb9kDlJ42-0CS-27" value="" style="edgeStyle=orthogonalEdgeStyle;rounded=0;orthogonalLoop=1;jettySize=auto;html=1;exitX=0.5;exitY=0;exitDx=0;exitDy=0;entryX=1;entryY=0.5;entryDx=0;entryDy=0;" edge="1" parent="WIyWlLk6GJQsqaUBKTNV-1" source="8VdCpqw6Dqc6OQHHu6PZ-1" target="O2-hMlVbb9kDlJ42-0CS-26">
          <mxGeometry relative="1" as="geometry">
            <mxPoint x="-145" y="545" as="targetPoint" />
            <Array as="points">
              <mxPoint x="35" y="445" />
            </Array>
            <mxPoint x="35" y="785" as="sourcePoint" />
          </mxGeometry>
        </mxCell>
        <mxCell id="O2-hMlVbb9kDlJ42-0CS-29" style="edgeStyle=orthogonalEdgeStyle;rounded=0;orthogonalLoop=1;jettySize=auto;html=1;exitX=0.5;exitY=1;exitDx=0;exitDy=0;entryX=0.5;entryY=0;entryDx=0;entryDy=0;" edge="1" parent="WIyWlLk6GJQsqaUBKTNV-1" source="O2-hMlVbb9kDlJ42-0CS-26" target="6S7R1LXf0X3z3ujbFeZb-55">
          <mxGeometry relative="1" as="geometry" />
        </mxCell>
        <mxCell id="O2-hMlVbb9kDlJ42-0CS-30" style="edgeStyle=orthogonalEdgeStyle;rounded=0;orthogonalLoop=1;jettySize=auto;html=1;exitX=0.5;exitY=1;exitDx=0;exitDy=0;entryX=0.5;entryY=0;entryDx=0;entryDy=0;" edge="1" parent="WIyWlLk6GJQsqaUBKTNV-1" source="O2-hMlVbb9kDlJ42-0CS-26" target="6S7R1LXf0X3z3ujbFeZb-54">
          <mxGeometry relative="1" as="geometry" />
        </mxCell>
        <mxCell id="O2-hMlVbb9kDlJ42-0CS-26" value="Đăng nhập." style="rounded=0;whiteSpace=wrap;html=1;" vertex="1" parent="WIyWlLk6GJQsqaUBKTNV-1">
          <mxGeometry x="-220" y="420" width="120" height="50" as="geometry" />
        </mxCell>
        <mxCell id="O2-hMlVbb9kDlJ42-0CS-88" style="edgeStyle=orthogonalEdgeStyle;rounded=0;orthogonalLoop=1;jettySize=auto;html=1;exitX=1;exitY=0.5;exitDx=0;exitDy=0;entryX=0.5;entryY=0;entryDx=0;entryDy=0;" edge="1" parent="WIyWlLk6GJQsqaUBKTNV-1" source="O2-hMlVbb9kDlJ42-0CS-32" target="6S7R1LXf0X3z3ujbFeZb-31">
          <mxGeometry relative="1" as="geometry">
            <Array as="points">
              <mxPoint x="1060" y="390" />
              <mxPoint x="1060" y="475" />
              <mxPoint x="1020" y="475" />
            </Array>
          </mxGeometry>
        </mxCell>
        <mxCell id="O2-hMlVbb9kDlJ42-0CS-32" value="Click thanh toán" style="shape=parallelogram;perimeter=parallelogramPerimeter;whiteSpace=wrap;html=1;fixedSize=1;" vertex="1" parent="WIyWlLk6GJQsqaUBKTNV-1">
          <mxGeometry x="910" y="375" width="140" height="30" as="geometry" />
        </mxCell>
        <mxCell id="O2-hMlVbb9kDlJ42-0CS-34" value="Thanh toán" style="rounded=0;whiteSpace=wrap;html=1;" vertex="1" parent="WIyWlLk6GJQsqaUBKTNV-1">
          <mxGeometry x="1130" y="410" width="120" height="60" as="geometry" />
        </mxCell>
        <mxCell id="O2-hMlVbb9kDlJ42-0CS-60" value="" style="edgeStyle=orthogonalEdgeStyle;rounded=0;orthogonalLoop=1;jettySize=auto;html=1;" edge="1" parent="WIyWlLk6GJQsqaUBKTNV-1" source="O2-hMlVbb9kDlJ42-0CS-36" target="O2-hMlVbb9kDlJ42-0CS-57">
          <mxGeometry relative="1" as="geometry" />
        </mxCell>
        <mxCell id="O2-hMlVbb9kDlJ42-0CS-36" value="Click xem nội dung order" style="shape=parallelogram;perimeter=parallelogramPerimeter;whiteSpace=wrap;html=1;fixedSize=1;" vertex="1" parent="WIyWlLk6GJQsqaUBKTNV-1">
          <mxGeometry x="50" y="787.5" width="120" height="40" as="geometry" />
        </mxCell>
        <mxCell id="O2-hMlVbb9kDlJ42-0CS-38" value="Order đã xác nhận thanh toán" style="rhombus;whiteSpace=wrap;html=1;" vertex="1" parent="WIyWlLk6GJQsqaUBKTNV-1">
          <mxGeometry x="40" y="977.5" width="140" height="80" as="geometry" />
        </mxCell>
        <mxCell id="O2-hMlVbb9kDlJ42-0CS-42" value="Yes" style="rounded=0;html=1;jettySize=auto;orthogonalLoop=1;fontSize=11;endArrow=block;endFill=0;endSize=8;strokeWidth=1;shadow=0;labelBackgroundColor=none;edgeStyle=orthogonalEdgeStyle;exitX=0.5;exitY=1;exitDx=0;exitDy=0;entryX=0.5;entryY=0;entryDx=0;entryDy=0;" edge="1" parent="WIyWlLk6GJQsqaUBKTNV-1" target="O2-hMlVbb9kDlJ42-0CS-44" source="O2-hMlVbb9kDlJ42-0CS-38">
          <mxGeometry x="-1" y="20" relative="1" as="geometry">
            <mxPoint as="offset" />
            <mxPoint x="91.5" y="1072.5" as="sourcePoint" />
            <mxPoint x="46.5" y="1142.5" as="targetPoint" />
            <Array as="points">
              <mxPoint x="110.5" y="1087.5" />
            </Array>
          </mxGeometry>
        </mxCell>
        <mxCell id="O2-hMlVbb9kDlJ42-0CS-46" style="edgeStyle=orthogonalEdgeStyle;rounded=0;orthogonalLoop=1;jettySize=auto;html=1;exitX=0.5;exitY=1;exitDx=0;exitDy=0;entryX=0.5;entryY=0;entryDx=0;entryDy=0;" edge="1" parent="WIyWlLk6GJQsqaUBKTNV-1" source="O2-hMlVbb9kDlJ42-0CS-44" target="O2-hMlVbb9kDlJ42-0CS-45">
          <mxGeometry relative="1" as="geometry" />
        </mxCell>
        <mxCell id="O2-hMlVbb9kDlJ42-0CS-44" value="Xóa order" style="shape=parallelogram;perimeter=parallelogramPerimeter;whiteSpace=wrap;html=1;fixedSize=1;" vertex="1" parent="WIyWlLk6GJQsqaUBKTNV-1">
          <mxGeometry x="41.5" y="1097.5" width="137" height="30" as="geometry" />
        </mxCell>
        <mxCell id="O2-hMlVbb9kDlJ42-0CS-45" value="Pop-up: Xóa order thành công" style="rounded=0;whiteSpace=wrap;html=1;" vertex="1" parent="WIyWlLk6GJQsqaUBKTNV-1">
          <mxGeometry x="50" y="1167.5" width="120" height="42.5" as="geometry" />
        </mxCell>
        <mxCell id="O2-hMlVbb9kDlJ42-0CS-61" value="" style="edgeStyle=orthogonalEdgeStyle;rounded=0;orthogonalLoop=1;jettySize=auto;html=1;" edge="1" parent="WIyWlLk6GJQsqaUBKTNV-1" source="O2-hMlVbb9kDlJ42-0CS-57" target="O2-hMlVbb9kDlJ42-0CS-38">
          <mxGeometry relative="1" as="geometry" />
        </mxCell>
        <mxCell id="O2-hMlVbb9kDlJ42-0CS-57" value="Nội dung order" style="rounded=0;whiteSpace=wrap;html=1;" vertex="1" parent="WIyWlLk6GJQsqaUBKTNV-1">
          <mxGeometry x="50" y="877.5" width="120" height="60" as="geometry" />
        </mxCell>
        <mxCell id="O2-hMlVbb9kDlJ42-0CS-62" value="Click thêm order(?)" style="shape=parallelogram;perimeter=parallelogramPerimeter;whiteSpace=wrap;html=1;fixedSize=1;fillColor=#CCFF99;" vertex="1" parent="WIyWlLk6GJQsqaUBKTNV-1">
          <mxGeometry x="170" y="787.5" width="120" height="40" as="geometry" />
        </mxCell>
        <mxCell id="O2-hMlVbb9kDlJ42-0CS-71" style="edgeStyle=orthogonalEdgeStyle;rounded=0;orthogonalLoop=1;jettySize=auto;html=1;exitX=0.5;exitY=1;exitDx=0;exitDy=0;entryX=0.5;entryY=0;entryDx=0;entryDy=0;" edge="1" parent="WIyWlLk6GJQsqaUBKTNV-1" source="O2-hMlVbb9kDlJ42-0CS-64" target="O2-hMlVbb9kDlJ42-0CS-65">
          <mxGeometry relative="1" as="geometry" />
        </mxCell>
        <mxCell id="O2-hMlVbb9kDlJ42-0CS-64" value="Danh sách order (Bán)" style="rounded=0;whiteSpace=wrap;html=1;" vertex="1" parent="WIyWlLk6GJQsqaUBKTNV-1">
          <mxGeometry x="297.5" y="697.5" width="100" height="37.5" as="geometry" />
        </mxCell>
        <mxCell id="O2-hMlVbb9kDlJ42-0CS-65" value="Click xem nội dung order" style="shape=parallelogram;perimeter=parallelogramPerimeter;whiteSpace=wrap;html=1;fixedSize=1;" vertex="1" parent="WIyWlLk6GJQsqaUBKTNV-1">
          <mxGeometry x="287.5" y="787.5" width="120" height="40" as="geometry" />
        </mxCell>
        <mxCell id="O2-hMlVbb9kDlJ42-0CS-69" value="Yes" style="rounded=0;html=1;jettySize=auto;orthogonalLoop=1;fontSize=11;endArrow=block;endFill=0;endSize=8;strokeWidth=1;shadow=0;labelBackgroundColor=none;edgeStyle=orthogonalEdgeStyle;exitX=0.5;exitY=1;exitDx=0;exitDy=0;entryX=0.5;entryY=0;entryDx=0;entryDy=0;" edge="1" parent="WIyWlLk6GJQsqaUBKTNV-1" source="6S7R1LXf0X3z3ujbFeZb-44" target="O2-hMlVbb9kDlJ42-0CS-64">
          <mxGeometry x="-1" y="20" relative="1" as="geometry">
            <mxPoint as="offset" />
            <mxPoint x="280" y="460" as="sourcePoint" />
            <mxPoint x="190" y="708" as="targetPoint" />
            <Array as="points">
              <mxPoint x="270" y="610" />
              <mxPoint x="348" y="610" />
            </Array>
          </mxGeometry>
        </mxCell>
        <mxCell id="O2-hMlVbb9kDlJ42-0CS-74" value="" style="edgeStyle=orthogonalEdgeStyle;rounded=0;orthogonalLoop=1;jettySize=auto;html=1;exitX=0.5;exitY=1;exitDx=0;exitDy=0;" edge="1" parent="WIyWlLk6GJQsqaUBKTNV-1" target="O2-hMlVbb9kDlJ42-0CS-76" source="O2-hMlVbb9kDlJ42-0CS-65">
          <mxGeometry relative="1" as="geometry">
            <mxPoint x="325" y="877.5" as="sourcePoint" />
          </mxGeometry>
        </mxCell>
        <mxCell id="O2-hMlVbb9kDlJ42-0CS-81" style="edgeStyle=orthogonalEdgeStyle;rounded=0;orthogonalLoop=1;jettySize=auto;html=1;exitX=0.5;exitY=1;exitDx=0;exitDy=0;entryX=0.5;entryY=0;entryDx=0;entryDy=0;" edge="1" parent="WIyWlLk6GJQsqaUBKTNV-1" source="O2-hMlVbb9kDlJ42-0CS-76" target="O2-hMlVbb9kDlJ42-0CS-80">
          <mxGeometry relative="1" as="geometry">
            <mxPoint x="587" y="972.5" as="targetPoint" />
          </mxGeometry>
        </mxCell>
        <mxCell id="O2-hMlVbb9kDlJ42-0CS-76" value="Nội dung order" style="rounded=0;whiteSpace=wrap;html=1;" vertex="1" parent="WIyWlLk6GJQsqaUBKTNV-1">
          <mxGeometry x="374.5" y="890" width="120" height="60" as="geometry" />
        </mxCell>
        <mxCell id="O2-hMlVbb9kDlJ42-0CS-77" value="" style="edgeStyle=orthogonalEdgeStyle;rounded=0;orthogonalLoop=1;jettySize=auto;html=1;exitX=0.5;exitY=1;exitDx=0;exitDy=0;entryX=0.5;entryY=0;entryDx=0;entryDy=0;" edge="1" parent="WIyWlLk6GJQsqaUBKTNV-1" source="O2-hMlVbb9kDlJ42-0CS-76" target="O2-hMlVbb9kDlJ42-0CS-79">
          <mxGeometry relative="1" as="geometry">
            <mxPoint x="435" y="982.5" as="sourcePoint" />
            <mxPoint x="437" y="1032.5" as="targetPoint" />
            <Array as="points">
              <mxPoint x="435" y="982.5" />
              <mxPoint x="426" y="982.5" />
            </Array>
          </mxGeometry>
        </mxCell>
        <mxCell id="O2-hMlVbb9kDlJ42-0CS-79" value="Đổi trạng thái order" style="shape=parallelogram;perimeter=parallelogramPerimeter;whiteSpace=wrap;html=1;fixedSize=1;" vertex="1" parent="WIyWlLk6GJQsqaUBKTNV-1">
          <mxGeometry x="357.5" y="1013.75" width="137" height="32.5" as="geometry" />
        </mxCell>
        <mxCell id="O2-hMlVbb9kDlJ42-0CS-80" value="Xóa order" style="shape=parallelogram;perimeter=parallelogramPerimeter;whiteSpace=wrap;html=1;fixedSize=1;" vertex="1" parent="WIyWlLk6GJQsqaUBKTNV-1">
          <mxGeometry x="494.5" y="1013.75" width="137" height="32.5" as="geometry" />
        </mxCell>
        <mxCell id="O2-hMlVbb9kDlJ42-0CS-83" style="edgeStyle=orthogonalEdgeStyle;rounded=0;orthogonalLoop=1;jettySize=auto;html=1;exitX=0.5;exitY=1;exitDx=0;exitDy=0;entryX=0.5;entryY=0;entryDx=0;entryDy=0;" edge="1" parent="WIyWlLk6GJQsqaUBKTNV-1" target="O2-hMlVbb9kDlJ42-0CS-84" source="O2-hMlVbb9kDlJ42-0CS-80">
          <mxGeometry relative="1" as="geometry">
            <mxPoint x="563" y="1070" as="sourcePoint" />
          </mxGeometry>
        </mxCell>
        <mxCell id="O2-hMlVbb9kDlJ42-0CS-84" value="Pop-up: Xóa order thành công." style="rounded=0;whiteSpace=wrap;html=1;" vertex="1" parent="WIyWlLk6GJQsqaUBKTNV-1">
          <mxGeometry x="503" y="1077" width="120" height="33" as="geometry" />
        </mxCell>
        <mxCell id="O2-hMlVbb9kDlJ42-0CS-91" value="Yes" style="edgeStyle=orthogonalEdgeStyle;rounded=0;orthogonalLoop=1;jettySize=auto;html=1;exitX=0.5;exitY=0;exitDx=0;exitDy=0;" edge="1" parent="WIyWlLk6GJQsqaUBKTNV-1" source="O2-hMlVbb9kDlJ42-0CS-89" target="O2-hMlVbb9kDlJ42-0CS-34">
          <mxGeometry x="-0.6027" y="-20" relative="1" as="geometry">
            <mxPoint x="1190" y="470" as="targetPoint" />
            <mxPoint as="offset" />
          </mxGeometry>
        </mxCell>
        <mxCell id="O2-hMlVbb9kDlJ42-0CS-92" value="No" style="edgeStyle=orthogonalEdgeStyle;rounded=0;orthogonalLoop=1;jettySize=auto;html=1;exitX=0.5;exitY=1;exitDx=0;exitDy=0;entryX=0.5;entryY=0;entryDx=0;entryDy=0;" edge="1" parent="WIyWlLk6GJQsqaUBKTNV-1" source="O2-hMlVbb9kDlJ42-0CS-89" target="O2-hMlVbb9kDlJ42-0CS-93">
          <mxGeometry x="-0.4595" y="20" relative="1" as="geometry">
            <mxPoint x="1190" y="690" as="targetPoint" />
            <mxPoint as="offset" />
          </mxGeometry>
        </mxCell>
        <mxCell id="O2-hMlVbb9kDlJ42-0CS-89" value="Đang ở trạng thái customer" style="rhombus;whiteSpace=wrap;html=1;" vertex="1" parent="WIyWlLk6GJQsqaUBKTNV-1">
          <mxGeometry x="1130" y="545" width="120" height="90" as="geometry" />
        </mxCell>
        <mxCell id="O2-hMlVbb9kDlJ42-0CS-96" style="edgeStyle=orthogonalEdgeStyle;rounded=0;orthogonalLoop=1;jettySize=auto;html=1;exitX=0;exitY=0.5;exitDx=0;exitDy=0;entryX=1;entryY=0.5;entryDx=0;entryDy=0;" edge="1" parent="WIyWlLk6GJQsqaUBKTNV-1" source="O2-hMlVbb9kDlJ42-0CS-93" target="6S7R1LXf0X3z3ujbFeZb-34">
          <mxGeometry relative="1" as="geometry">
            <Array as="points">
              <mxPoint x="1130" y="700" />
              <mxPoint x="580" y="700" />
              <mxPoint x="580" y="580" />
              <mxPoint x="100" y="580" />
              <mxPoint x="100" y="405" />
            </Array>
          </mxGeometry>
        </mxCell>
        <mxCell id="O2-hMlVbb9kDlJ42-0CS-93" value="Pop-up: đăng nhập vào tài khoản khách mua hàng." style="rounded=0;whiteSpace=wrap;html=1;" vertex="1" parent="WIyWlLk6GJQsqaUBKTNV-1">
          <mxGeometry x="1130" y="662.5" width="120" height="60" as="geometry" />
        </mxCell>
        <mxCell id="O2-hMlVbb9kDlJ42-0CS-98" style="edgeStyle=orthogonalEdgeStyle;rounded=0;orthogonalLoop=1;jettySize=auto;html=1;exitX=0.5;exitY=0;exitDx=0;exitDy=0;" edge="1" parent="WIyWlLk6GJQsqaUBKTNV-1" source="6S7R1LXf0X3z3ujbFeZb-8">
          <mxGeometry relative="1" as="geometry">
            <mxPoint x="270" y="190" as="targetPoint" />
          </mxGeometry>
        </mxCell>
        <mxCell id="O2-hMlVbb9kDlJ42-0CS-106" style="edgeStyle=orthogonalEdgeStyle;rounded=0;orthogonalLoop=1;jettySize=auto;html=1;exitX=1;exitY=0.5;exitDx=0;exitDy=0;entryX=0;entryY=0.5;entryDx=0;entryDy=0;" edge="1" parent="WIyWlLk6GJQsqaUBKTNV-1" source="O2-hMlVbb9kDlJ42-0CS-99" target="O2-hMlVbb9kDlJ42-0CS-102">
          <mxGeometry relative="1" as="geometry" />
        </mxCell>
        <mxCell id="O2-hMlVbb9kDlJ42-0CS-99" value="Mở cửa hàng" style="shape=parallelogram;perimeter=parallelogramPerimeter;whiteSpace=wrap;html=1;fixedSize=1;" vertex="1" parent="WIyWlLk6GJQsqaUBKTNV-1">
          <mxGeometry x="672.5" y="250" width="120" height="35" as="geometry" />
        </mxCell>
        <mxCell id="O2-hMlVbb9kDlJ42-0CS-107" value="No" style="edgeStyle=orthogonalEdgeStyle;rounded=0;orthogonalLoop=1;jettySize=auto;html=1;entryX=0;entryY=0.5;entryDx=0;entryDy=0;" edge="1" parent="WIyWlLk6GJQsqaUBKTNV-1" source="O2-hMlVbb9kDlJ42-0CS-102" target="O2-hMlVbb9kDlJ42-0CS-108">
          <mxGeometry x="-0.9514" y="-12" relative="1" as="geometry">
            <mxPoint x="1070" y="267.5" as="targetPoint" />
            <mxPoint y="1" as="offset" />
          </mxGeometry>
        </mxCell>
        <mxCell id="O2-hMlVbb9kDlJ42-0CS-113" value="Yes" style="edgeStyle=orthogonalEdgeStyle;rounded=0;orthogonalLoop=1;jettySize=auto;html=1;exitX=0.5;exitY=0;exitDx=0;exitDy=0;entryX=0;entryY=0.5;entryDx=0;entryDy=0;" edge="1" parent="WIyWlLk6GJQsqaUBKTNV-1" source="O2-hMlVbb9kDlJ42-0CS-102" target="O2-hMlVbb9kDlJ42-0CS-134">
          <mxGeometry x="-0.697" y="-13" relative="1" as="geometry">
            <mxPoint x="900" y="140" as="targetPoint" />
            <Array as="points">
              <mxPoint x="887" y="180" />
            </Array>
            <mxPoint as="offset" />
          </mxGeometry>
        </mxCell>
        <mxCell id="O2-hMlVbb9kDlJ42-0CS-102" value="User là người bán?" style="rhombus;whiteSpace=wrap;html=1;" vertex="1" parent="WIyWlLk6GJQsqaUBKTNV-1">
          <mxGeometry x="827" y="222.5" width="120" height="90" as="geometry" />
        </mxCell>
        <mxCell id="O2-hMlVbb9kDlJ42-0CS-110" style="edgeStyle=orthogonalEdgeStyle;rounded=0;orthogonalLoop=1;jettySize=auto;html=1;entryX=0;entryY=0.5;entryDx=0;entryDy=0;" edge="1" parent="WIyWlLk6GJQsqaUBKTNV-1" source="O2-hMlVbb9kDlJ42-0CS-108" target="O2-hMlVbb9kDlJ42-0CS-109">
          <mxGeometry relative="1" as="geometry" />
        </mxCell>
        <mxCell id="O2-hMlVbb9kDlJ42-0CS-108" value="Pop-up: tính năng này chỉ có người bán sử dụng." style="rounded=0;whiteSpace=wrap;html=1;" vertex="1" parent="WIyWlLk6GJQsqaUBKTNV-1">
          <mxGeometry x="1030" y="270" width="120" height="60" as="geometry" />
        </mxCell>
        <mxCell id="O2-hMlVbb9kDlJ42-0CS-109" value="Login" style="rounded=0;whiteSpace=wrap;html=1;fillColor=#FFFF66;" vertex="1" parent="WIyWlLk6GJQsqaUBKTNV-1">
          <mxGeometry x="1210" y="280" width="120" height="40" as="geometry" />
        </mxCell>
        <mxCell id="O2-hMlVbb9kDlJ42-0CS-116" value="" style="edgeStyle=orthogonalEdgeStyle;rounded=0;orthogonalLoop=1;jettySize=auto;html=1;" edge="1" parent="WIyWlLk6GJQsqaUBKTNV-1" source="O2-hMlVbb9kDlJ42-0CS-114" target="O2-hMlVbb9kDlJ42-0CS-115">
          <mxGeometry relative="1" as="geometry" />
        </mxCell>
        <mxCell id="O2-hMlVbb9kDlJ42-0CS-114" value="Gõ đăng ký cửa hàng" style="shape=parallelogram;perimeter=parallelogramPerimeter;whiteSpace=wrap;html=1;fixedSize=1;" vertex="1" parent="WIyWlLk6GJQsqaUBKTNV-1">
          <mxGeometry x="1115" y="160" width="150" height="40" as="geometry" />
        </mxCell>
        <mxCell id="O2-hMlVbb9kDlJ42-0CS-123" value="" style="edgeStyle=orthogonalEdgeStyle;rounded=0;orthogonalLoop=1;jettySize=auto;html=1;" edge="1" parent="WIyWlLk6GJQsqaUBKTNV-1" source="O2-hMlVbb9kDlJ42-0CS-115" target="O2-hMlVbb9kDlJ42-0CS-122">
          <mxGeometry relative="1" as="geometry" />
        </mxCell>
        <mxCell id="O2-hMlVbb9kDlJ42-0CS-115" value="Server: Kiểm tra thông tin cửa hàng" style="whiteSpace=wrap;html=1;" vertex="1" parent="WIyWlLk6GJQsqaUBKTNV-1">
          <mxGeometry x="1290" y="150" width="120" height="60" as="geometry" />
        </mxCell>
        <mxCell id="O2-hMlVbb9kDlJ42-0CS-125" value="Yes" style="edgeStyle=orthogonalEdgeStyle;rounded=0;orthogonalLoop=1;jettySize=auto;html=1;" edge="1" parent="WIyWlLk6GJQsqaUBKTNV-1" source="O2-hMlVbb9kDlJ42-0CS-122" target="O2-hMlVbb9kDlJ42-0CS-124">
          <mxGeometry x="-1" y="-15" relative="1" as="geometry">
            <mxPoint as="offset" />
          </mxGeometry>
        </mxCell>
        <mxCell id="O2-hMlVbb9kDlJ42-0CS-132" value="No" style="edgeStyle=orthogonalEdgeStyle;rounded=0;orthogonalLoop=1;jettySize=auto;html=1;" edge="1" parent="WIyWlLk6GJQsqaUBKTNV-1" source="O2-hMlVbb9kDlJ42-0CS-122" target="O2-hMlVbb9kDlJ42-0CS-131">
          <mxGeometry x="-0.5" y="15" relative="1" as="geometry">
            <mxPoint as="offset" />
          </mxGeometry>
        </mxCell>
        <mxCell id="O2-hMlVbb9kDlJ42-0CS-122" value="Đăng ký hợp lệ" style="rhombus;whiteSpace=wrap;html=1;" vertex="1" parent="WIyWlLk6GJQsqaUBKTNV-1">
          <mxGeometry x="1480" y="140" width="110" height="80" as="geometry" />
        </mxCell>
        <mxCell id="O2-hMlVbb9kDlJ42-0CS-141" style="edgeStyle=orthogonalEdgeStyle;rounded=0;orthogonalLoop=1;jettySize=auto;html=1;exitX=0.75;exitY=0;exitDx=0;exitDy=0;entryX=0.685;entryY=1.018;entryDx=0;entryDy=0;entryPerimeter=0;" edge="1" parent="WIyWlLk6GJQsqaUBKTNV-1" source="O2-hMlVbb9kDlJ42-0CS-124" target="O2-hMlVbb9kDlJ42-0CS-140">
          <mxGeometry relative="1" as="geometry" />
        </mxCell>
        <mxCell id="O2-hMlVbb9kDlJ42-0CS-144" style="edgeStyle=orthogonalEdgeStyle;rounded=0;orthogonalLoop=1;jettySize=auto;html=1;exitX=0;exitY=0.25;exitDx=0;exitDy=0;entryX=1;entryY=0.25;entryDx=0;entryDy=0;" edge="1" parent="WIyWlLk6GJQsqaUBKTNV-1" source="O2-hMlVbb9kDlJ42-0CS-124" target="O2-hMlVbb9kDlJ42-0CS-143">
          <mxGeometry relative="1" as="geometry" />
        </mxCell>
        <mxCell id="O2-hMlVbb9kDlJ42-0CS-147" style="edgeStyle=orthogonalEdgeStyle;rounded=0;orthogonalLoop=1;jettySize=auto;html=1;exitX=0;exitY=0;exitDx=0;exitDy=0;entryX=1;entryY=0.75;entryDx=0;entryDy=0;" edge="1" parent="WIyWlLk6GJQsqaUBKTNV-1" source="O2-hMlVbb9kDlJ42-0CS-124" target="O2-hMlVbb9kDlJ42-0CS-146">
          <mxGeometry relative="1" as="geometry" />
        </mxCell>
        <mxCell id="O2-hMlVbb9kDlJ42-0CS-124" value="Thông tin cửa hàng (bán)" style="whiteSpace=wrap;html=1;" vertex="1" parent="WIyWlLk6GJQsqaUBKTNV-1">
          <mxGeometry x="1475" y="60" width="120" height="50" as="geometry" />
        </mxCell>
        <mxCell id="O2-hMlVbb9kDlJ42-0CS-130" value="" style="edgeStyle=orthogonalEdgeStyle;rounded=0;orthogonalLoop=1;jettySize=auto;html=1;" edge="1" parent="WIyWlLk6GJQsqaUBKTNV-1" source="O2-hMlVbb9kDlJ42-0CS-126" target="O2-hMlVbb9kDlJ42-0CS-129">
          <mxGeometry relative="1" as="geometry" />
        </mxCell>
        <mxCell id="O2-hMlVbb9kDlJ42-0CS-126" value="Click thông tin cửa hàng (khách)" style="shape=parallelogram;perimeter=parallelogramPerimeter;whiteSpace=wrap;html=1;fixedSize=1;" vertex="1" parent="WIyWlLk6GJQsqaUBKTNV-1">
          <mxGeometry x="420" y="603" width="120" height="37" as="geometry" />
        </mxCell>
        <mxCell id="O2-hMlVbb9kDlJ42-0CS-129" value="Thông tin cửa hàng (khách)" style="whiteSpace=wrap;html=1;" vertex="1" parent="WIyWlLk6GJQsqaUBKTNV-1">
          <mxGeometry x="420" y="708.5" width="120" height="60" as="geometry" />
        </mxCell>
        <mxCell id="O2-hMlVbb9kDlJ42-0CS-133" style="edgeStyle=orthogonalEdgeStyle;rounded=0;orthogonalLoop=1;jettySize=auto;html=1;exitX=0.25;exitY=0;exitDx=0;exitDy=0;entryX=0.5;entryY=1;entryDx=0;entryDy=0;" edge="1" parent="WIyWlLk6GJQsqaUBKTNV-1" source="O2-hMlVbb9kDlJ42-0CS-131" target="O2-hMlVbb9kDlJ42-0CS-134">
          <mxGeometry relative="1" as="geometry">
            <Array as="points">
              <mxPoint x="1505" y="230" />
              <mxPoint x="1010" y="230" />
            </Array>
          </mxGeometry>
        </mxCell>
        <mxCell id="O2-hMlVbb9kDlJ42-0CS-131" value="Pop-up: đăng ký cửa hàng thất bại" style="whiteSpace=wrap;html=1;" vertex="1" parent="WIyWlLk6GJQsqaUBKTNV-1">
          <mxGeometry x="1475" y="270" width="120" height="60" as="geometry" />
        </mxCell>
        <mxCell id="O2-hMlVbb9kDlJ42-0CS-139" style="edgeStyle=orthogonalEdgeStyle;rounded=0;orthogonalLoop=1;jettySize=auto;html=1;exitX=1;exitY=0.5;exitDx=0;exitDy=0;entryX=0;entryY=0.5;entryDx=0;entryDy=0;" edge="1" parent="WIyWlLk6GJQsqaUBKTNV-1" source="O2-hMlVbb9kDlJ42-0CS-134" target="O2-hMlVbb9kDlJ42-0CS-114">
          <mxGeometry relative="1" as="geometry" />
        </mxCell>
        <mxCell id="O2-hMlVbb9kDlJ42-0CS-134" value="Trang đăng ký cửa hàng" style="rounded=0;whiteSpace=wrap;html=1;" vertex="1" parent="WIyWlLk6GJQsqaUBKTNV-1">
          <mxGeometry x="950" y="150" width="120" height="60" as="geometry" />
        </mxCell>
        <mxCell id="O2-hMlVbb9kDlJ42-0CS-142" style="edgeStyle=orthogonalEdgeStyle;rounded=0;orthogonalLoop=1;jettySize=auto;html=1;exitX=0.25;exitY=1;exitDx=0;exitDy=0;entryX=0.193;entryY=0.015;entryDx=0;entryDy=0;entryPerimeter=0;" edge="1" parent="WIyWlLk6GJQsqaUBKTNV-1" source="O2-hMlVbb9kDlJ42-0CS-140" target="O2-hMlVbb9kDlJ42-0CS-124">
          <mxGeometry relative="1" as="geometry" />
        </mxCell>
        <mxCell id="O2-hMlVbb9kDlJ42-0CS-140" value="Chỉnh sửa thông tin cửa hàng" style="shape=parallelogram;perimeter=parallelogramPerimeter;whiteSpace=wrap;html=1;fixedSize=1;" vertex="1" parent="WIyWlLk6GJQsqaUBKTNV-1">
          <mxGeometry x="1504" y="-25" width="150" height="40" as="geometry" />
        </mxCell>
        <mxCell id="O2-hMlVbb9kDlJ42-0CS-145" style="edgeStyle=orthogonalEdgeStyle;rounded=0;orthogonalLoop=1;jettySize=auto;html=1;exitX=1;exitY=0.75;exitDx=0;exitDy=0;entryX=0;entryY=0.75;entryDx=0;entryDy=0;" edge="1" parent="WIyWlLk6GJQsqaUBKTNV-1" source="O2-hMlVbb9kDlJ42-0CS-143" target="O2-hMlVbb9kDlJ42-0CS-124">
          <mxGeometry relative="1" as="geometry" />
        </mxCell>
        <mxCell id="O2-hMlVbb9kDlJ42-0CS-143" value="Kiểm tra kho hàng tại cửa hàng" style="shape=parallelogram;perimeter=parallelogramPerimeter;whiteSpace=wrap;html=1;fixedSize=1;" vertex="1" parent="WIyWlLk6GJQsqaUBKTNV-1">
          <mxGeometry x="1241" y="65" width="150" height="40" as="geometry" />
        </mxCell>
        <mxCell id="O2-hMlVbb9kDlJ42-0CS-148" style="edgeStyle=orthogonalEdgeStyle;rounded=0;orthogonalLoop=1;jettySize=auto;html=1;exitX=0.5;exitY=1;exitDx=0;exitDy=0;entryX=0;entryY=0;entryDx=0;entryDy=0;" edge="1" parent="WIyWlLk6GJQsqaUBKTNV-1" source="O2-hMlVbb9kDlJ42-0CS-146" target="O2-hMlVbb9kDlJ42-0CS-124">
          <mxGeometry relative="1" as="geometry">
            <Array as="points">
              <mxPoint x="1415" y="60" />
            </Array>
          </mxGeometry>
        </mxCell>
        <mxCell id="O2-hMlVbb9kDlJ42-0CS-146" value="Xem thống kê cửa hàng" style="shape=parallelogram;perimeter=parallelogramPerimeter;whiteSpace=wrap;html=1;fixedSize=1;" vertex="1" parent="WIyWlLk6GJQsqaUBKTNV-1">
          <mxGeometry x="1340" y="-15" width="150" height="40" as="geometry" />
        </mxCell>
        <mxCell id="O2-hMlVbb9kDlJ42-0CS-149" value="Ghi chú: vẫn chưa hiểu &#39;thêm order&#39; là đi về thêm đồ hay tạo một order trống" style="text;html=1;strokeColor=none;fillColor=none;align=center;verticalAlign=middle;whiteSpace=wrap;rounded=0;" vertex="1" parent="WIyWlLk6GJQsqaUBKTNV-1">
          <mxGeometry x="182.5" y="847.5" width="127" height="30" as="geometry" />
        </mxCell>
      </root>
    </mxGraphModel>
  </diagram>
</mxfile>
